<?xml version="1.0" encoding="us-ascii" standalone="no"?><svg xmlns="http://www.w3.org/2000/svg" xmlns:xlink="http://www.w3.org/1999/xlink" contentStyleType="text/css" height="1376px" preserveAspectRatio="none" style="width:636px;height:1376px;background:#FFFFFF;" version="1.1" viewBox="0 0 636 1376" width="636px" zoomAndPan="magnify"><defs/><g><!--cluster SafePing System--><g id="cluster_SafePing System"><rect fill="none" height="1058" rx="2.5" ry="2.5" style="stroke:#181818;stroke-width:1.0;" width="581" x="49" y="101"/><text fill="#000000" font-family="sans-serif" font-size="14" font-weight="bold" lengthAdjust="spacing" textLength="116" x="281.5" y="117.5332">SafePing System</text></g><g id="elem_UC_Login"><ellipse cx="507.734" cy="899.9517" fill="#FDF6E3" rx="36.234" ry="15.4517" style="stroke:#000000;stroke-width:0.5;"/><text fill="#000000" font-family="sans-serif" font-size="14" lengthAdjust="spacing" textLength="35" x="490.234" y="903.6802">Login</text></g><g id="elem_UC_Logout"><ellipse cx="174.5997" cy="308.9523" fill="#FDF6E3" rx="42.5997" ry="15.4523" style="stroke:#000000;stroke-width:0.5;"/><text fill="#000000" font-family="sans-serif" font-size="14" lengthAdjust="spacing" textLength="44" x="152.3355" y="312.7639">Logout</text></g><g id="elem_UC_ResetPassword"><ellipse cx="174.7256" cy="522.9451" fill="#FDF6E3" rx="75.2256" ry="17.4451" style="stroke:#000000;stroke-width:0.5;"/><text fill="#000000" font-family="sans-serif" font-size="14" lengthAdjust="spacing" textLength="102" x="120.7256" y="527.4617">Reset Password</text></g><g id="elem_UC_ViewAttendance"><ellipse cx="174.355" cy="377.171" fill="#FDF6E3" rx="76.355" ry="17.671" style="stroke:#000000;stroke-width:0.5;"/><text fill="#000000" font-family="sans-serif" font-size="14" lengthAdjust="spacing" textLength="105" x="119.1233" y="381.6255">View Attendance</text></g><g id="elem_UC_Notifications"><ellipse cx="174.4661" cy="449.7932" fill="#FDF6E3" rx="86.9661" ry="19.7932" style="stroke:#000000;stroke-width:0.5;"/><text fill="#000000" font-family="sans-serif" font-size="14" lengthAdjust="spacing" textLength="131" x="108.9661" y="453.5217">Receive Notifications</text></g><g id="elem_UC_ViewActivities"><ellipse cx="174.6901" cy="160.038" fill="#FDF6E3" rx="103.1901" ry="23.038" style="stroke:#000000;stroke-width:0.5;"/><text fill="#000000" font-family="sans-serif" font-size="14" lengthAdjust="spacing" textLength="168" x="90.6901" y="163.7665">View After-school Activities</text></g><g id="elem_UC_MessageTeacher"><ellipse cx="507.7412" cy="576.9482" fill="#FDF6E3" rx="102.7412" ry="22.9482" style="stroke:#000000;stroke-width:0.5;"/><text fill="#000000" font-family="sans-serif" font-size="14" lengthAdjust="spacing" textLength="167" x="424.2412" y="580.6768">Send Message to Teacher</text></g><g id="elem_UC_BusTracking"><ellipse cx="507.6819" cy="276.1364" fill="#FDF6E3" rx="78.6819" ry="18.1364" style="stroke:#000000;stroke-width:0.5;"/><text fill="#000000" font-family="sans-serif" font-size="14" lengthAdjust="spacing" textLength="111" x="450.5947" y="280.3083">Track School Bus</text></g><g id="elem_UC_ManageChildProfile"><ellipse cx="174.4661" cy="237.7932" fill="#FDF6E3" rx="86.9661" ry="19.7932" style="stroke:#000000;stroke-width:0.5;"/><text fill="#000000" font-family="sans-serif" font-size="14" lengthAdjust="spacing" textLength="131" x="108.9661" y="241.5217">Manage Child Profile</text></g><g id="elem_UC_MarkAttendance"><ellipse cx="174.6203" cy="677.8241" fill="#FDF6E3" rx="77.1203" ry="17.8241" style="stroke:#000000;stroke-width:0.5;"/><text fill="#000000" font-family="sans-serif" font-size="14" lengthAdjust="spacing" textLength="107" x="118.7783" y="682.1856">Mark Attendance</text></g><g id="elem_UC_UpdateActivity"><ellipse cx="174.4418" cy="754.9884" fill="#FDF6E3" rx="105.4418" ry="23.4884" style="stroke:#000000;stroke-width:0.5;"/><text fill="#000000" font-family="sans-serif" font-size="14" lengthAdjust="spacing" textLength="173" x="87.9418" y="758.7169">Update After-school Activity</text></g><g id="elem_UC_StudentList"><ellipse cx="174.5069" cy="831.9014" fill="#FDF6E3" rx="77.5069" ry="17.9014" style="stroke:#000000;stroke-width:0.5;"/><text fill="#000000" font-family="sans-serif" font-size="14" lengthAdjust="spacing" textLength="108" x="118.3567" y="836.216">View Student List</text></g><g id="elem_UC_NotifyParents"><ellipse cx="507.3456" cy="473.1691" fill="#FDF6E3" rx="106.3456" ry="23.6691" style="stroke:#000000;stroke-width:0.5;"/><text fill="#000000" font-family="sans-serif" font-size="14" lengthAdjust="spacing" textLength="175" x="419.8456" y="476.8976">Send Notification to Parents</text></g><g id="elem_UC_ReadMessages"><ellipse cx="174.5226" cy="599.8045" fill="#FDF6E3" rx="109.5226" ry="24.3045" style="stroke:#000000;stroke-width:0.5;"/><text fill="#000000" font-family="sans-serif" font-size="14" lengthAdjust="spacing" textLength="182" x="83.5226" y="603.533">View Messages from Parents</text></g><g id="elem_UC_ManageUsers"><ellipse cx="174.2516" cy="903.9503" fill="#FDF6E3" rx="82.7516" ry="18.9503" style="stroke:#000000;stroke-width:0.5;"/><text fill="#000000" font-family="sans-serif" font-size="14" lengthAdjust="spacing" textLength="121" x="113.7516" y="907.6788">Add/Remove Users</text></g><g id="elem_UC_GenerateReports"><ellipse cx="174.3789" cy="976.8758" fill="#FDF6E3" rx="79.8789" ry="18.3758" style="stroke:#000000;stroke-width:0.5;"/><text fill="#000000" font-family="sans-serif" font-size="14" lengthAdjust="spacing" textLength="114" x="116.3373" y="980.9024">Generate Reports</text></g><g id="elem_UC_ConfigureSettings"><ellipse cx="174.597" cy="1049.1194" fill="#FDF6E3" rx="81.097" ry="18.6194" style="stroke:#000000;stroke-width:0.5;"/><text fill="#000000" font-family="sans-serif" font-size="14" lengthAdjust="spacing" textLength="117" x="115.5843" y="1052.9982">Configure Settings</text></g><g id="elem_UC_SystemLogs"><ellipse cx="174.3923" cy="1122.8785" fill="#FDF6E3" rx="87.3923" ry="19.8785" style="stroke:#000000;stroke-width:0.5;"/><text fill="#000000" font-family="sans-serif" font-size="14" lengthAdjust="spacing" textLength="132" x="108.3923" y="1126.607">Monitor System Logs</text></g><!--entity P--><g id="elem_P"><ellipse cx="507.5" cy="22" fill="#F1F1F1" rx="16" ry="16" style="stroke:#181818;stroke-width:0.5;"/><path d="M507.5,42 C511.5,42 514.5,42 518.5,38 C526.5,38 534.5,46 534.5,54 L534.5,58 C534.5,62 530.5,66 526.5,66 L488.5,66 C484.5,66 480.5,62 480.5,58 L480.5,54 C480.5,46 488.5,38 496.5,38 C500.5,42 503.5,42 507.5,42 " fill="#F1F1F1" style="stroke:#181818;stroke-width:0.5;"/><text fill="#000000" font-family="sans-serif" font-size="14" lengthAdjust="spacing" textLength="42" x="486.5" y="81.0332">Parent</text></g><!--entity T--><g id="elem_T"><ellipse cx="174.5" cy="1195" fill="#F1F1F1" rx="16" ry="16" style="stroke:#181818;stroke-width:0.5;"/><path d="M174.5,1215 C178.5,1215 181.5,1215 185.5,1211 C193.5,1211 201.5,1219 201.5,1227 L201.5,1231 C201.5,1235 197.5,1239 193.5,1239 L155.5,1239 C151.5,1239 147.5,1235 147.5,1231 L147.5,1227 C147.5,1219 155.5,1211 163.5,1211 C167.5,1215 170.5,1215 174.5,1215 " fill="#F1F1F1" style="stroke:#181818;stroke-width:0.5;"/><text fill="#000000" font-family="sans-serif" font-size="14" lengthAdjust="spacing" textLength="53" x="148" y="1254.0332">Teacher</text></g><!--entity A--><g id="elem_A"><ellipse cx="174.5" cy="1309" fill="#F1F1F1" rx="16" ry="16" style="stroke:#181818;stroke-width:0.5;"/><path d="M174.5,1329 C178.5,1329 181.5,1329 185.5,1325 C193.5,1325 201.5,1333 201.5,1341 L201.5,1345 C201.5,1349 197.5,1353 193.5,1353 L155.5,1353 C151.5,1353 147.5,1349 147.5,1345 L147.5,1341 C147.5,1333 155.5,1325 163.5,1325 C167.5,1329 170.5,1329 174.5,1329 " fill="#F1F1F1" style="stroke:#181818;stroke-width:0.5;"/><text fill="#000000" font-family="sans-serif" font-size="14" lengthAdjust="spacing" textLength="39" x="155" y="1368.0332">Admin</text></g><!--reverse link UC_Login to P--><g id="link_UC_Login_P"><path d="M492.076,880.4764 C459.716,838.6964 373.33,719.7 342.5,599.5 C317.05,500.27 290.92,227.01 342.5,138.5 C372.17,87.58 441.02,62.15 479.75,51.47 " fill="none" id="UC_Login-backto-P" style="stroke:#2AA198;stroke-width:1.0;"/><polygon fill="#2AA198" points="495.75,885.22,493.4013,875.6553,492.6883,881.267,487.0766,880.554,495.75,885.22" style="stroke:#2AA198;stroke-width:1.0;"/></g><!--reverse link UC_Logout to P--><g id="link_UC_Logout_P"><path d="M218.6476,300.6534 C240.4976,295.4634 262.17,288.3 284,275 C307.48,260.69 355.4,209.65 371,187 C389.28,160.46 380.58,145.92 401,121 C422.89,94.29 456.3,72.36 479.64,59.04 " fill="none" id="UC_Logout-backto-P" style="stroke:#2AA198;stroke-width:1.0;"/><polygon fill="#2AA198" points="212.81,302.04,222.4908,303.8518,217.6747,300.8845,220.642,296.0684,212.81,302.04" style="stroke:#2AA198;stroke-width:1.0;"/></g><!--reverse link UC_ResetPassword to P--><g id="link_UC_ResetPassword_P"><path d="M243.4156,511.7663 C260.3656,506.4563 271.7,499.95 284,487 C318.6,450.56 286,419.72 314,378 C331.83,351.43 354.91,361.67 371,334 C419.06,251.35 351.58,202.84 401,121 C419.32,90.66 454.85,68.95 479.59,56.7 " fill="none" id="UC_ResetPassword-backto-P" style="stroke:#2AA198;stroke-width:1.0;"/><polygon fill="#2AA198" points="237.69,513.56,247.4742,514.6865,242.4613,512.0653,245.0826,507.0524,237.69,513.56" style="stroke:#2AA198;stroke-width:1.0;"/></g><!--reverse link UC_ViewAttendance to P--><g id="link_UC_ViewAttendance_P"><path d="M240.0916,364.3482 C257.3316,359.1182 269.64,353.19 284,342 C303.84,326.53 297.11,312.65 314,294 C335.49,270.28 353.71,276.93 371,250 C402.81,200.47 368.37,169.99 401,121 C420.52,91.69 455.43,69.88 479.72,57.31 " fill="none" id="UC_ViewAttendance-backto-P" style="stroke:#2AA198;stroke-width:1.0;"/><polygon fill="#2AA198" points="234.35,366.09,244.1236,367.305,239.1347,364.6385,241.8012,359.6496,234.35,366.09" style="stroke:#2AA198;stroke-width:1.0;"/></g><!--reverse link UC_Notifications to P--><g id="link_UC_Notifications_P"><path d="M246.7451,434.987 C262.2951,429.387 272.13,423.41 284,412 C310.18,386.83 292.18,365.03 314,336 C333.23,310.42 354.45,319.39 371,292 C410.91,225.96 360.01,186.37 401,121 C419.83,90.97 455.24,69.19 479.82,56.84 " fill="none" id="UC_Notifications-backto-P" style="stroke:#2AA198;stroke-width:1.0;"/><polygon fill="#2AA198" points="241.1,437.02,250.9229,437.734,245.8042,435.3259,248.2123,430.2072,241.1,437.02" style="stroke:#2AA198;stroke-width:1.0;"/></g><!--reverse link UC_ViewActivities to P--><g id="link_UC_ViewActivities_P"><path d="M236.5677,138.781 C308.5277,113.781 425.64,73.09 479.66,54.33 " fill="none" id="UC_ViewActivities-backto-P" style="stroke:#2AA198;stroke-width:1.0;"/><polygon fill="#2AA198" points="230.9,140.75,240.7143,141.5749,235.6231,139.1091,238.0889,134.018,230.9,140.75" style="stroke:#2AA198;stroke-width:1.0;"/></g><!--reverse link UC_MessageTeacher to P--><g id="link_UC_MessageTeacher_P"><path d="M429.1855,558.6405 C394.9255,546.8705 362.85,529.07 342.5,496.5 C300.35,429.03 302.45,207.24 342.5,138.5 C372.17,87.58 441.02,62.15 479.75,51.47 " fill="none" id="UC_MessageTeacher-backto-P" style="stroke:#2AA198;stroke-width:1.0;"/><polygon fill="#2AA198" points="434.86,560.59,427.6479,553.8828,430.1313,558.9654,425.0487,561.4488,434.86,560.59" style="stroke:#2AA198;stroke-width:1.0;"/></g><!--reverse link UC_BusTracking to P--><g id="link_UC_BusTracking_P"><path d="M507.5,251.95 C507.5,194.14 507.5,142.33 507.5,84.51 " fill="none" id="UC_BusTracking-backto-P" style="stroke:#2AA198;stroke-width:1.0;"/><polygon fill="#2AA198" points="507.5,257.95,511.5,248.95,507.5,252.95,503.5,248.95,507.5,257.95" style="stroke:#2AA198;stroke-width:1.0;"/></g><!--reverse link UC_ManageChildProfile to P--><g id="link_UC_ManageChildProfile_P"><path d="M234.8154,220.5126 C252.6954,214.4826 266.76,208.81 284,200 C304.64,189.44 425.28,103.35 479.78,64.22 " fill="none" id="UC_ManageChildProfile-backto-P" style="stroke:#2AA198;stroke-width:1.0;"/><polygon fill="#2AA198" points="229.13,222.43,238.9363,223.3442,233.8678,220.8322,236.3798,215.7637,229.13,222.43" style="stroke:#2AA198;stroke-width:1.0;"/></g><!--link T to UC_Login--><g id="link_T_UC_Login"><path d="M202.12,1206.84 C225.15,1196.44 258.65,1179.48 284,1159 C380.6,1080.95 464.7537,962.1634 493.3537,919.7834 " fill="none" id="T-to-UC_Login" style="stroke:#2AA198;stroke-width:1.0;"/><polygon fill="#2AA198" points="496.71,914.81,488.3599,920.0326,493.9131,918.9545,494.9912,924.5077,496.71,914.81" style="stroke:#2AA198;stroke-width:1.0;"/></g><!--link T to UC_Logout--><g id="link_T_UC_Logout"><path d="M146.85,1214.56 C109.07,1208.09 43.96,1190.05 26,1141.5 C10.93,1100.75 10.93,400.25 26,359.5 C40.88,319.27 87.6653,309.6828 126.0753,308.0628 " fill="none" id="T-to-UC_Logout" style="stroke:#2AA198;stroke-width:1.0;"/><polygon fill="#2AA198" points="132.07,307.81,122.9094,304.1928,127.0744,308.0207,123.2466,312.1857,132.07,307.81" style="stroke:#2AA198;stroke-width:1.0;"/></g><!--link T to UC_ResetPassword--><g id="link_T_UC_ResetPassword"><path d="M146.85,1214.56 C109.07,1208.09 43.96,1190.05 26,1141.5 C15.09,1112.01 15.09,604.99 26,575.5 C37.1,545.49 63.1715,533.049 94.6215,527.189 " fill="none" id="T-to-UC_ResetPassword" style="stroke:#2AA198;stroke-width:1.0;"/><polygon fill="#2AA198" points="100.52,526.09,90.9396,523.8063,95.6046,527.0059,92.405,531.6709,100.52,526.09" style="stroke:#2AA198;stroke-width:1.0;"/></g><!--link T to UC_MarkAttendance--><g id="link_T_UC_MarkAttendance"><path d="M146.85,1214.56 C109.07,1208.09 43.96,1190.05 26,1141.5 C10.2,1098.77 10.2,774.23 26,731.5 C36.93,701.94 62.1286,689.3369 93.0486,683.0969 " fill="none" id="T-to-UC_MarkAttendance" style="stroke:#2AA198;stroke-width:1.0;"/><polygon fill="#2AA198" points="98.93,681.91,89.3166,679.7695,94.0288,682.8991,90.8992,687.6114,98.93,681.91" style="stroke:#2AA198;stroke-width:1.0;"/></g><!--link T to UC_UpdateActivity--><g id="link_T_UC_UpdateActivity"><path d="M146.85,1214.56 C109.07,1208.09 43.96,1190.05 26,1141.5 C13.36,1107.32 13.36,847.68 26,813.5 C34.99,789.2 51.544,776.7951 76.144,768.3651 " fill="none" id="T-to-UC_UpdateActivity" style="stroke:#2AA198;stroke-width:1.0;"/><polygon fill="#2AA198" points="81.82,766.42,72.0093,765.5536,77.09,768.0409,74.6027,773.1216,81.82,766.42" style="stroke:#2AA198;stroke-width:1.0;"/></g><!--link T to UC_StudentList--><g id="link_T_UC_StudentList"><path d="M146.85,1214.56 C109.07,1208.09 43.96,1190.05 26,1141.5 C6.19,1087.94 6.19,938.06 26,884.5 C36.82,855.26 61.5654,842.8212 92.2154,836.7212 " fill="none" id="T-to-UC_StudentList" style="stroke:#2AA198;stroke-width:1.0;"/><polygon fill="#2AA198" points="98.1,835.55,88.4923,833.3837,93.1962,836.526,90.0539,841.2298,98.1,835.55" style="stroke:#2AA198;stroke-width:1.0;"/></g><!--link T to UC_NotifyParents--><g id="link_T_UC_NotifyParents"><path d="M202.26,1210.72 C227.41,1202.45 264.06,1186.39 284,1159 C325.45,1102.06 360.71,593.77 401,536 C413.94,517.45 428.9214,506.2179 448.2814,496.1979 " fill="none" id="T-to-UC_NotifyParents" style="stroke:#2AA198;stroke-width:1.0;"/><polygon fill="#2AA198" points="453.61,493.44,443.7785,494.0244,449.1695,495.7382,447.4557,501.1292,453.61,493.44" style="stroke:#2AA198;stroke-width:1.0;"/></g><!--link T to UC_ReadMessages--><g id="link_T_UC_ReadMessages"><path d="M146.85,1214.56 C109.07,1208.09 43.96,1190.05 26,1141.5 C7.42,1091.27 7.42,709.73 26,659.5 C34.82,635.67 50.657,623.3087 74.627,614.6487 " fill="none" id="T-to-UC_ReadMessages" style="stroke:#2AA198;stroke-width:1.0;"/><polygon fill="#2AA198" points="80.27,612.61,70.4463,611.9061,75.5675,614.3089,73.1646,619.4301,80.27,612.61" style="stroke:#2AA198;stroke-width:1.0;"/></g><!--link A to UC_Login--><g id="link_A_UC_Login"><path d="M202.45,1322.47 C226.01,1313.14 260.09,1297.1 284,1275 C404.92,1163.25 478.9297,976.3388 499.0697,920.9488 " fill="none" id="A-to-UC_Login" style="stroke:#2AA198;stroke-width:1.0;"/><polygon fill="#2AA198" points="501.12,915.31,494.2853,922.4014,499.4114,920.009,501.8038,925.1351,501.12,915.31" style="stroke:#2AA198;stroke-width:1.0;"/></g><!--link A to UC_Logout--><g id="link_A_UC_Logout"><path d="M146.82,1328.93 C109.01,1322.96 43.86,1305.79 26,1257.5 C8.69,1210.71 8.69,406.29 26,359.5 C40.88,319.27 87.6653,309.6828 126.0753,308.0628 " fill="none" id="A-to-UC_Logout" style="stroke:#2AA198;stroke-width:1.0;"/><polygon fill="#2AA198" points="132.07,307.81,122.9094,304.1928,127.0744,308.0207,123.2466,312.1857,132.07,307.81" style="stroke:#2AA198;stroke-width:1.0;"/></g><!--link A to UC_ResetPassword--><g id="link_A_UC_ResetPassword"><path d="M146.82,1328.93 C109.01,1322.96 43.86,1305.79 26,1257.5 C12.86,1221.96 12.86,611.04 26,575.5 C37.1,545.49 63.1715,533.049 94.6215,527.189 " fill="none" id="A-to-UC_ResetPassword" style="stroke:#2AA198;stroke-width:1.0;"/><polygon fill="#2AA198" points="100.52,526.09,90.9396,523.8063,95.6046,527.0059,92.405,531.6709,100.52,526.09" style="stroke:#2AA198;stroke-width:1.0;"/></g><!--link A to UC_ManageUsers--><g id="link_A_UC_ManageUsers"><path d="M146.82,1328.93 C109.01,1322.96 43.86,1305.79 26,1257.5 C14.47,1226.34 14.47,989.66 26,958.5 C36.43,930.3 59.266,917.6092 88.676,910.7692 " fill="none" id="A-to-UC_ManageUsers" style="stroke:#2AA198;stroke-width:1.0;"/><polygon fill="#2AA198" points="94.52,909.41,84.8478,907.5527,89.65,910.5426,86.6601,915.3448,94.52,909.41" style="stroke:#2AA198;stroke-width:1.0;"/></g><!--link A to UC_GenerateReports--><g id="link_A_UC_GenerateReports"><path d="M146.82,1328.93 C109.01,1322.96 43.86,1305.79 26,1257.5 C8.5,1210.19 8.5,1077.81 26,1030.5 C36.65,1001.71 60.5335,989.1386 90.6435,982.6786 " fill="none" id="A-to-UC_GenerateReports" style="stroke:#2AA198;stroke-width:1.0;"/><polygon fill="#2AA198" points="96.51,981.42,86.8712,979.397,91.6212,982.4689,88.5493,987.219,96.51,981.42" style="stroke:#2AA198;stroke-width:1.0;"/></g><!--link A to UC_ConfigureSettings--><g id="link_A_UC_ConfigureSettings"><path d="M146.82,1328.93 C109.01,1322.96 43.86,1305.79 26,1257.5 C14.05,1225.2 14.05,1134.8 26,1102.5 C36.55,1073.97 60.0088,1061.4031 89.8388,1054.8731 " fill="none" id="A-to-UC_ConfigureSettings" style="stroke:#2AA198;stroke-width:1.0;"/><polygon fill="#2AA198" points="95.7,1053.59,86.0528,1051.6071,90.8157,1054.6592,87.7636,1059.4221,95.7,1053.59" style="stroke:#2AA198;stroke-width:1.0;"/></g><!--link A to UC_SystemLogs--><g id="link_A_UC_SystemLogs"><path d="M146.77,1324.27 C118.36,1315.46 73.82,1299.07 41,1275 C6,1249.33 10.94,1219.21 26,1178.5 C36.12,1151.14 57.5074,1138.4079 85.9074,1131.1379 " fill="none" id="A-to-UC_SystemLogs" style="stroke:#2AA198;stroke-width:1.0;"/><polygon fill="#2AA198" points="91.72,1129.65,82.0092,1128.0069,86.8762,1130.8899,83.9931,1135.757,91.72,1129.65" style="stroke:#2AA198;stroke-width:1.0;"/></g><!--reverse link UC_ResetPassword to UC_Login--><g id="link_UC_ResetPassword_UC_Login"><path d="M255.1972,526.0057 C295.3172,530.8257 337.49,542.17 371,571 C396.87,593.26 479.06,822.27 501.05,884.48 " fill="none" id="UC_ResetPassword-backto-UC_Login" style="stroke:#2AA198;stroke-width:1.0;stroke-dasharray:7.0,7.0;"/><polygon fill="#2AA198" points="249.24,525.29,257.6986,530.335,254.2043,525.8864,258.6529,522.3921,249.24,525.29" style="stroke:#2AA198;stroke-width:1.0;"/><text fill="#000000" font-family="sans-serif" font-size="13" lengthAdjust="spacing" textLength="53" x="316" y="536.4951">&#171;extend&#187;</text></g><!--reverse link UC_Notifications to UC_NotifyParents--><g id="link_UC_Notifications_UC_NotifyParents"><path d="M263.5047,456.4186 C282.0747,457.7486 295.72,458.72 314,460 C343.57,462.07 375.7,464.26 405.09,466.24 " fill="none" id="UC_Notifications-backto-UC_NotifyParents" style="stroke:#2AA198;stroke-width:1.0;stroke-dasharray:7.0,7.0;"/><polygon fill="#2AA198" points="257.52,455.99,266.2113,460.6227,262.5072,456.3472,266.7828,452.6432,257.52,455.99" style="stroke:#2AA198;stroke-width:1.0;"/><text fill="#000000" font-family="sans-serif" font-size="13" lengthAdjust="spacing" textLength="55" x="315" y="456.4951">&#171;include&#187;</text></g><!--reverse link UC_ReadMessages to UC_MessageTeacher--><g id="link_UC_ReadMessages_UC_MessageTeacher"><path d="M289.656,597.4907 C318.096,596.4507 342.73,595.17 371,593 C386.35,591.82 402.64,590.21 418.41,588.46 " fill="none" id="UC_ReadMessages-backto-UC_MessageTeacher" style="stroke:#2AA198;stroke-width:1.0;stroke-dasharray:7.0,7.0;"/><polygon fill="#2AA198" points="283.66,597.71,292.8002,601.3784,288.6567,597.5273,292.5078,593.3838,283.66,597.71" style="stroke:#2AA198;stroke-width:1.0;"/><text fill="#000000" font-family="sans-serif" font-size="13" lengthAdjust="spacing" textLength="55" x="315" y="589.4951">&#171;include&#187;</text></g><!--reverse link UC_Notifications to UC_BusTracking--><g id="link_UC_Notifications_UC_BusTracking"><path d="M233.6832,432.1862 C251.7632,426.0662 266.24,420.42 284,412 C359.88,376.02 442.62,320.77 482.44,293.08 " fill="none" id="UC_Notifications-backto-UC_BusTracking" style="stroke:#2AA198;stroke-width:1.0;stroke-dasharray:7.0,7.0;"/><polygon fill="#2AA198" points="228,434.11,237.8074,435.0132,232.736,432.5069,235.2424,427.4355,228,434.11" style="stroke:#2AA198;stroke-width:1.0;"/><text fill="#000000" font-family="sans-serif" font-size="13" lengthAdjust="spacing" textLength="55" x="315" y="364.4951">&#171;include&#187;</text></g><!--SRC=[ZLN1ZjCm4BtdAqRbmAcB00a1MgsKBIoNNLGrBLTaaabgRMfNjhEbGlllsB6TUfAmujQyDvEPUJElQR4sO2GetkmDL5nXQRWKcNxauiWKEy2HbO-imSASMmH7Cz6qc0ImqaZbQNP2BGyfsMaicKRuam7SsZSrIdQYMibMAdXrz-NkmzVtZf6gGkNHNwqDirYkb3o5m7Tv_lRJn-mvo_fYi6OAXG6cOHsGBR9oZyf1sm3brO4B1-HPDlGDYuBLkEQYWUAi3HuMjZLRxJLyGu6AjR2ptQviozgYiVl5lMouMBYNxLO_-uSHApkJqFOfvJUeqTYcjJxPGMDSZqRGzn3ccctX1ySJvCQWg9WeCRx5mHUKLYsHFo5ybuRNl6Hkhpgc4N1QfZQebhhSIzb2RY_YYHkEcjGSq3Ixi7t00sfjByQTLLXBJ0nCGDF4hR9RXy9NlEs6KlPdJzc5fU4FJBWAgprlArWhMVDsKCHpFHKOBsuyaLbr7vXwd57NmVFgxeuLCpYhr3bc-vY8JbGkJ5UvTTzpFHnFm1mqqJNTcHFNNmjTwJc0as91UWsraeTnwWPP5GEyMDuyirBbLVLcWmTfJyloIbFTUoWDzxwoKctmADMbPiG3dAQifAXvqoc40esngn-I1YOIP8TIS6TyRsomFXpoFEGGFzwz-zlJl4B_xwM1MNtjYw0CqwvXsTgOvKrg-37eRKvGQkeHEV4gOSUMdAQcbYFin5U4fHwYYV_mogR_7Bmaq1QM_JU3AZH1lKGK7cj4sOdbA3tn5AMfVoWtDiYuA-g1V7R0V7x0_CK1yz60gKyeDpK5vUVkdqQCBts3hR-eFJ-ww3WBN7N7gscty1ckh_6ta__cneSJsIvfv5pxD2xArgeVy-XHflKkGi_b9UVwVzMUixy0]--></g></svg>